<?xml version="1.0" standalone="no"?>
<!DOCTYPE svg PUBLIC "-//W3C//DTD SVG 20010904//EN"
 "http://www.w3.org/TR/2001/REC-SVG-20010904/DTD/svg10.dtd">
<svg version="1.0" xmlns="http://www.w3.org/2000/svg"
 width="1280.000000pt" height="640.000000pt" viewBox="0 0 1280.000000 640.000000"
 preserveAspectRatio="xMidYMid meet">
<metadata>
Created by potrace 1.15, written by Peter Selinger 2001-2017
</metadata>
<g transform="translate(0.000000,640.000000) scale(0.100000,-0.100000)"
fill="#000000" stroke="none">
<path d="M1108 4090 c-129 -22 -290 -84 -427 -167 -244 -146 -411 -407 -411
-641 0 -239 134 -509 332 -671 128 -104 327 -200 501 -241 185 -44 282 -53
540 -52 268 2 327 10 567 80 l95 28 42 -28 c23 -16 72 -40 110 -54 132 -50
416 -69 553 -38 66 15 72 14 192 -11 155 -33 274 -41 410 -26 266 29 542 136
722 280 21 17 49 31 61 31 12 0 65 -20 116 -44 389 -184 725 -250 1028 -201
212 35 353 107 501 255 105 106 153 187 190 324 30 108 31 260 3 348 -64 199
-201 378 -378 497 -163 109 -329 168 -553 196 -344 42 -639 -1 -1031 -152 -63
-24 -129 -52 -145 -62 -17 -10 -86 -51 -153 -90 l-122 -72 -98 31 c-108 34
-269 60 -380 60 -103 0 -258 -33 -355 -75 -135 -60 -283 -176 -344 -270 -23
-37 -38 -51 -58 -53 -30 -2 -144 -57 -207 -101 -51 -35 -141 -125 -193 -195
-64 -86 -88 -212 -62 -317 9 -35 24 -71 32 -80 14 -16 11 -18 -43 -34 -326
-95 -681 -125 -909 -78 -179 38 -418 153 -541 262 -128 113 -233 277 -269 421
-23 90 -24 212 -1 277 56 161 237 343 432 434 44 21 132 53 195 71 109 31 123
33 275 33 214 -1 398 -41 555 -120 135 -69 257 -216 280 -339 14 -75 2 -160
-31 -212 -26 -42 -130 -138 -187 -171 -371 -219 -990 -96 -985 195 3 130 103
218 291 256 102 20 130 20 228 0 107 -22 234 -94 234 -134 0 -29 -50 -81 -98
-103 -30 -13 -77 -21 -144 -24 l-99 -6 3 -41 3 -41 120 1 c158 0 218 18 285
82 40 39 49 55 55 94 24 161 -158 287 -456 314 -89 8 -195 -8 -291 -43 -80
-30 -186 -113 -223 -177 -80 -136 -46 -315 84 -445 84 -84 152 -127 267 -167
128 -46 271 -55 443 -30 197 29 338 96 472 224 48 45 101 104 117 130 54 84
66 230 33 371 -24 102 -84 194 -184 287 -116 107 -329 198 -537 230 -127 19
-320 16 -452 -6z m4228 -305 c187 -24 371 -92 499 -187 160 -118 282 -352 278
-533 -3 -156 -66 -289 -193 -408 -230 -217 -634 -275 -1001 -144 -118 42 -379
150 -378 157 0 3 30 19 67 37 37 18 117 62 178 98 l111 65 80 -35 c158 -68
343 -88 495 -52 198 46 304 220 238 388 -31 77 -74 131 -151 188 -165 123
-366 173 -615 152 -185 -15 -303 -50 -506 -151 l-85 -42 -58 38 c-33 20 -92
52 -132 71 -40 18 -73 35 -73 38 0 2 16 9 35 15 19 6 74 34 122 62 132 76 218
117 322 155 109 39 306 91 395 103 73 10 219 4 372 -15z m-1793 -260 c54 -9
137 -37 132 -44 -2 -5 -73 -57 -157 -116 l-152 -108 -65 18 c-104 28 -146 34
-308 41 -84 4 -153 11 -153 16 0 4 6 8 13 8 8 0 40 18 71 40 70 49 152 91 226
115 105 35 279 48 393 30z m556 -205 c66 -33 122 -64 126 -69 3 -6 -14 -22
-37 -37 -24 -15 -86 -60 -139 -100 l-97 -73 -39 19 c-22 10 -86 37 -144 61
-57 23 -105 43 -107 44 -4 4 301 215 311 215 4 0 61 -27 126 -60z m1206 24
c80 -21 184 -77 239 -128 69 -64 85 -153 41 -218 -67 -99 -256 -134 -450 -84
l-90 23 38 16 c90 38 171 57 248 57 78 0 79 0 95 32 16 31 16 32 -6 50 -37 30
-98 41 -195 34 -89 -5 -256 -41 -346 -73 l-46 -16 -124 74 c-68 41 -133 77
-143 82 -10 4 -17 9 -15 11 2 2 48 22 102 45 271 112 471 141 652 95z m-2232
-160 c62 -9 120 -19 129 -23 12 -4 -47 -51 -214 -169 -127 -90 -236 -166 -243
-168 -24 -10 -34 210 -14 294 7 26 14 49 16 51 5 7 140 29 181 30 18 1 84 -6
145 -15z m1386 -68 c7 -8 59 -42 117 -76 57 -34 104 -65 104 -69 0 -3 -51 -42
-112 -86 -61 -44 -126 -90 -143 -103 l-32 -23 -122 78 c-67 43 -122 81 -124
85 -2 7 281 208 294 208 3 0 12 -6 18 -14z m-1884 -113 c0 -103 3 -124 23
-165 13 -26 31 -48 40 -50 10 -2 -28 -28 -89 -61 -89 -47 -233 -117 -244 -117
-1 0 -8 20 -15 45 -40 142 64 337 230 433 30 17 55 32 55 32 0 0 0 -53 0 -117z
m1063 23 c59 -24 131 -51 160 -61 30 -9 50 -21 45 -25 -53 -48 -549 -374 -634
-417 l-111 -56 -52 25 c-29 14 -80 48 -115 76 -34 28 -72 57 -84 65 -12 8 -20
17 -17 19 3 2 47 23 98 48 51 24 202 117 335 207 133 89 248 162 255 162 7 1
61 -19 120 -43z m520 -267 c75 -39 139 -72 141 -74 2 -2 -13 -11 -33 -19 -20
-8 -78 -40 -129 -69 -177 -104 -284 -148 -452 -183 -70 -15 -287 -20 -319 -8
-12 5 20 27 111 78 126 71 249 150 432 280 51 36 98 66 103 66 5 0 71 -32 146
-71z m-1316 -295 c44 -33 48 -39 32 -45 -55 -22 -235 -2 -346 38 -46 16 -63
32 -35 34 6 0 59 21 117 48 l105 47 38 -42 c21 -24 61 -60 89 -80z"/>
<path d="M11187 4094 c-106 -16 -268 -69 -374 -122 -96 -49 -205 -147 -268
-243 -99 -147 -114 -394 -33 -521 16 -26 69 -85 117 -130 179 -171 411 -249
696 -235 201 10 359 78 489 210 129 132 161 316 77 448 -54 86 -167 162 -292
196 -154 42 -418 7 -546 -73 -65 -40 -118 -107 -129 -162 -11 -54 13 -117 62
-161 61 -57 129 -75 279 -76 l120 0 3 41 3 41 -99 6 c-67 3 -114 11 -144 24
-47 22 -98 74 -98 102 0 49 139 122 267 141 82 11 102 11 185 -5 199 -38 300
-125 301 -260 2 -160 -200 -287 -478 -302 -250 -13 -460 52 -610 189 -78 71
-102 109 -115 179 -18 90 2 176 61 264 86 128 194 204 364 258 157 49 239 61
410 61 144 0 170 -3 260 -27 261 -73 463 -209 584 -396 57 -89 76 -151 75
-246 -3 -195 -85 -365 -261 -536 -117 -115 -328 -232 -493 -275 -88 -22 -249
-44 -330 -44 -147 0 -446 45 -605 91 -38 11 -78 23 -88 26 -17 4 -17 6 -3 22
8 9 23 46 32 81 22 86 7 202 -36 277 -44 77 -170 205 -250 253 -76 46 -180 91
-192 84 -4 -3 -23 20 -42 49 -34 54 -131 145 -218 205 -117 81 -328 142 -485
142 -114 0 -266 -25 -377 -60 l-98 -31 -96 57 c-173 103 -215 125 -327 169
-274 107 -484 154 -728 162 -568 20 -978 -183 -1181 -586 -54 -107 -69 -168
-68 -282 1 -279 140 -506 400 -658 153 -89 338 -128 562 -118 163 7 271 26
422 71 110 34 289 106 395 160 67 34 92 33 139 -5 136 -109 307 -189 522 -244
206 -52 405 -56 610 -11 119 27 124 27 191 12 197 -45 530 1 665 92 l42 29 95
-28 c230 -70 297 -79 566 -81 215 -1 265 1 378 21 229 39 364 84 513 172 122
71 185 122 265 214 76 87 162 249 192 360 25 94 31 248 11 323 -36 141 -136
305 -250 409 -94 86 -296 197 -451 246 -137 44 -413 59 -588 31z m-3394 -295
c247 -37 499 -127 714 -255 43 -26 100 -54 127 -63 l49 -17 -55 -23 c-30 -12
-92 -44 -139 -72 l-84 -50 -125 60 c-219 105 -330 131 -555 134 -124 1 -165
-2 -235 -20 -228 -58 -401 -189 -445 -338 -23 -75 -19 -132 14 -202 53 -112
159 -170 350 -189 88 -10 248 20 359 66 l93 39 157 -90 c86 -49 167 -92 180
-95 12 -4 22 -9 22 -13 0 -3 -31 -18 -68 -32 -37 -15 -128 -52 -202 -82 -167
-69 -255 -92 -408 -108 -201 -20 -363 10 -561 104 -84 39 -216 165 -259 245
-82 154 -97 286 -48 432 41 121 76 185 145 266 169 198 425 291 864 312 21 1
71 -3 110 -9z m1677 -275 c122 -12 233 -56 361 -140 37 -24 72 -44 78 -44 6 0
11 -4 11 -10 0 -6 -43 -10 -107 -11 -123 0 -258 -17 -354 -44 l-65 -18 -140
99 c-77 54 -150 106 -164 115 -23 15 -23 16 41 34 64 19 202 35 249 29 14 -2
54 -6 90 -10z m-523 -250 c85 -58 153 -107 151 -109 -2 -1 -46 -19 -98 -40
-52 -21 -117 -48 -144 -61 l-48 -23 -77 58 c-42 31 -105 77 -140 100 -56 38
-61 45 -48 58 18 19 217 122 235 123 8 0 83 -48 169 -106z m-1207 81 c124 -17
173 -30 343 -97 114 -45 152 -68 114 -68 -7 0 -71 -34 -141 -76 l-128 -77 -87
27 c-246 76 -430 86 -501 28 -22 -18 -22 -19 -6 -50 16 -32 17 -32 97 -32 63
0 100 -7 175 -31 52 -17 94 -35 94 -38 0 -15 -170 -51 -236 -51 -232 2 -356
107 -299 256 41 107 252 214 440 222 17 1 77 -5 135 -13z m2178 -167 c97 -13
102 -19 122 -115 10 -51 10 -80 -1 -158 -8 -63 -17 -94 -24 -91 -6 2 -116 77
-244 167 -261 184 -254 168 -96 193 117 18 143 18 243 4z m-1439 -165 c128
-88 140 -99 124 -111 -10 -7 -67 -45 -127 -83 l-109 -70 -32 23 c-17 13 -82
59 -143 103 -61 44 -112 83 -112 86 0 4 47 35 104 69 58 34 110 68 117 76 7 8
18 13 24 10 7 -2 76 -49 154 -103z m1866 -18 c106 -103 157 -245 125 -348 -8
-23 -15 -43 -16 -45 -3 -5 -133 56 -243 115 -87 47 -101 57 -84 64 37 14 58
90 58 215 l0 111 49 -26 c27 -14 77 -53 111 -86z m-854 -96 c199 -132 324
-206 432 -253 8 -4 5 -10 -10 -21 -12 -9 -48 -38 -80 -63 -32 -26 -83 -60
-114 -76 l-56 -29 -114 57 c-66 34 -224 134 -378 240 -254 175 -262 181 -235
191 15 6 87 33 159 62 71 28 136 52 143 52 7 1 121 -71 253 -160z m-640 -146
c191 -135 327 -223 442 -286 88 -48 114 -66 101 -71 -34 -13 -248 -7 -324 9
-160 33 -278 81 -452 184 -46 27 -101 56 -123 65 -30 13 -36 19 -25 26 93 51
267 140 276 140 6 0 53 -30 105 -67z m1392 -262 c20 -7 37 -16 37 -21 0 -10
-122 -48 -195 -60 -69 -11 -172 -12 -199 -1 -15 6 -10 13 37 49 31 23 70 59
88 80 l33 39 80 -37 c45 -20 98 -42 119 -49z"/>
</g>
</svg>
